<svg xmlns="http://www.w3.org/2000/svg" xmlns:xlink="http://www.w3.org/1999/xlink" viewBox="0 0 1853.82 364.71"><defs><style>.cls-1,.cls-2{fill:none;}.cls-2,.cls-7,.cls-8{stroke:#000;stroke-miterlimit:10;}.cls-2{stroke-width:2px;}.cls-3{fill:#fcba54;}.cls-4{fill:#44b6e6;}.cls-5{fill:#fbb03b;}.cls-6{fill:#29abe2;}.cls-7,.cls-8{stroke-width:7px;}.cls-7{fill:url(#syntax);}.cls-8{fill:url(#network3);}.cls-9{font-size:178.19px;font-family:MyriadPro-Regular, Myriad Pro;}.cls-10{letter-spacing:-0.01em;}.cls-11{letter-spacing:-0.04em;}.cls-12{letter-spacing:-0.11em;}.cls-13{letter-spacing:-0.05em;}.cls-14{letter-spacing:-0.05em;}.cls-15{letter-spacing:-0.03em;}.cls-16{letter-spacing:-0.06em;}</style><pattern id="syntax" data-name="syntax" width="272.29" height="421.15" patternUnits="userSpaceOnUse" viewBox="0 0 272.29 421.15"><rect class="cls-1" width="272.29" height="421.15"/><line class="cls-2" x1="185.7" y1="362.85" x2="203.33" y2="345.22"/><line class="cls-2" x1="168" y1="380.59" x2="185.63" y2="362.96"/><line class="cls-2" x1="185.7" y1="362.96" x2="203.32" y2="380.59"/><line class="cls-2" x1="203.39" y1="345.27" x2="221.02" y2="362.89"/><line class="cls-2" x1="219.1" y1="395.14" x2="236.72" y2="377.52"/><line class="cls-2" x1="236.79" y1="412.89" x2="254.41" y2="395.26"/><line class="cls-2" x1="254.49" y1="395.26" x2="272.11" y2="412.89"/><line class="cls-2" x1="236.79" y1="377.57" x2="254.41" y2="395.19"/><line class="cls-2" x1="245.64" y1="362.89" x2="263.26" y2="345.27"/><line class="cls-2" x1="263.33" y1="345.27" x2="280.96" y2="362.89"/><line class="cls-2" x1="270.19" y1="392.15" x2="287.82" y2="374.53"/><line class="cls-2" x1="225.25" y1="431.28" x2="207.63" y2="413.66"/><line class="cls-2" x1="207.56" y1="413.7" x2="189.94" y2="431.33"/><line class="cls-2" x1="147.97" y1="415.54" x2="165.59" y2="397.92"/><line class="cls-2" x1="165.66" y1="397.92" x2="183.29" y2="415.54"/><line class="cls-2" x1="224.83" y1="283.61" x2="242.45" y2="265.98"/><line class="cls-2" x1="242.52" y1="301.35" x2="260.14" y2="283.72"/><line class="cls-2" x1="260.22" y1="283.72" x2="277.84" y2="301.35"/><line class="cls-2" x1="242.52" y1="266.03" x2="260.14" y2="283.65"/><line class="cls-2" x1="224.83" y1="319" x2="242.45" y2="301.37"/><line class="cls-2" x1="242.52" y1="336.74" x2="260.14" y2="319.12"/><line class="cls-2" x1="260.22" y1="319.12" x2="277.84" y2="336.74"/><line class="cls-2" x1="242.52" y1="301.42" x2="260.14" y2="319.04"/><line class="cls-2" x1="145.67" y1="343.17" x2="163.3" y2="325.55"/><line class="cls-2" x1="163.37" y1="325.55" x2="180.99" y2="343.17"/><line class="cls-2" x1="-17.8" y1="395.26" x2="-0.18" y2="412.89"/><line class="cls-2" x1="-8.95" y1="345.27" x2="8.67" y2="362.89"/><line class="cls-2" x1="-2.09" y1="392.15" x2="15.53" y2="374.53"/><line class="cls-2" x1="15.6" y1="409.89" x2="33.22" y2="392.27"/><line class="cls-2" x1="33.29" y1="392.27" x2="50.91" y2="409.89"/><line class="cls-2" x1="15.6" y1="374.57" x2="33.22" y2="392.2"/><line class="cls-2" x1="33.3" y1="427.55" x2="50.92" y2="409.92"/><line class="cls-2" x1="50.99" y1="409.97" x2="68.61" y2="427.59"/><line class="cls-2" x1="23.67" y1="334.2" x2="41.29" y2="316.57"/><line class="cls-2" x1="41.37" y1="316.57" x2="58.99" y2="334.2"/><line class="cls-2" x1="41.37" y1="351.89" x2="58.99" y2="334.27"/><line class="cls-2" x1="59.06" y1="334.27" x2="76.69" y2="351.89"/><line class="cls-2" x1="23.67" y1="369.59" x2="41.29" y2="351.96"/><line class="cls-2" x1="41.37" y1="351.96" x2="58.99" y2="369.59"/><line class="cls-2" x1="82.43" y1="292.39" x2="100.05" y2="274.77"/><line class="cls-2" x1="100.12" y1="310.13" x2="117.74" y2="292.51"/><line class="cls-2" x1="117.81" y1="292.51" x2="135.44" y2="310.13"/><line class="cls-2" x1="100.12" y1="274.82" x2="117.74" y2="292.44"/><line class="cls-2" x1="82.43" y1="327.79" x2="100.05" y2="310.16"/><line class="cls-2" x1="100.12" y1="345.53" x2="117.74" y2="327.9"/><line class="cls-2" x1="117.81" y1="327.9" x2="135.44" y2="345.53"/><line class="cls-2" x1="100.12" y1="310.21" x2="117.74" y2="327.83"/><line class="cls-2" x1="64.29" y1="389.77" x2="81.92" y2="372.14"/><line class="cls-2" x1="81.99" y1="372.14" x2="99.61" y2="389.77"/><line class="cls-2" x1="-12.07" y1="283.72" x2="5.55" y2="301.35"/><line class="cls-2" x1="-12.07" y1="319.12" x2="5.55" y2="336.74"/><line class="cls-2" x1="108.54" y1="374.3" x2="126.17" y2="356.68"/><line class="cls-2" x1="126.23" y1="392.04" x2="143.86" y2="374.42"/><line class="cls-2" x1="126.23" y1="356.72" x2="143.86" y2="374.35"/><line class="cls-2" x1="82.39" y1="422.17" x2="100.01" y2="404.55"/><line class="cls-2" x1="100.08" y1="404.55" x2="117.71" y2="422.17"/><line class="cls-2" x1="49.56" y1="152.27" x2="67.18" y2="134.65"/><line class="cls-2" x1="31.86" y1="170.01" x2="49.48" y2="152.39"/><line class="cls-2" x1="49.55" y1="152.39" x2="67.18" y2="170.01"/><line class="cls-2" x1="67.25" y1="134.69" x2="84.87" y2="152.31"/><line class="cls-2" x1="82.96" y1="184.57" x2="100.58" y2="166.94"/><line class="cls-2" x1="100.65" y1="202.31" x2="118.27" y2="184.68"/><line class="cls-2" x1="118.34" y1="184.68" x2="135.97" y2="202.31"/><line class="cls-2" x1="100.65" y1="166.99" x2="118.27" y2="184.61"/><line class="cls-2" x1="109.5" y1="152.31" x2="127.12" y2="134.69"/><line class="cls-2" x1="127.19" y1="134.69" x2="144.82" y2="152.31"/><line class="cls-2" x1="134.05" y1="181.58" x2="151.67" y2="163.95"/><line class="cls-2" x1="151.74" y1="199.32" x2="169.36" y2="181.69"/><line class="cls-2" x1="169.43" y1="181.69" x2="187.06" y2="199.32"/><line class="cls-2" x1="151.74" y1="164" x2="169.36" y2="181.62"/><line class="cls-2" x1="169.44" y1="216.97" x2="187.06" y2="199.34"/><line class="cls-2" x1="187.13" y1="234.71" x2="204.75" y2="217.09"/><line class="cls-2" x1="204.83" y1="217.09" x2="222.45" y2="234.71"/><line class="cls-2" x1="187.13" y1="199.39" x2="204.75" y2="217.01"/><line class="cls-2" x1="89.11" y1="220.71" x2="71.48" y2="203.08"/><line class="cls-2" x1="71.42" y1="238.45" x2="53.79" y2="220.82"/><line class="cls-2" x1="53.72" y1="220.82" x2="36.1" y2="238.45"/><line class="cls-2" x1="71.42" y1="203.13" x2="53.79" y2="220.75"/><line class="cls-2" x1="53.72" y1="256.1" x2="36.09" y2="238.47"/><line class="cls-2" x1="36.03" y1="273.84" x2="18.4" y2="256.22"/><line class="cls-2" x1="18.33" y1="256.22" x2="0.71" y2="273.84"/><line class="cls-2" x1="36.03" y1="238.52" x2="18.4" y2="256.14"/><line class="cls-2" x1="151.54" y1="232.32" x2="133.92" y2="214.7"/><line class="cls-2" x1="133.85" y1="214.7" x2="116.23" y2="232.32"/><line class="cls-2" x1="133.85" y1="250.01" x2="116.23" y2="232.39"/><line class="cls-2" x1="116.15" y1="232.39" x2="98.53" y2="250.01"/><line class="cls-2" x1="151.54" y1="267.71" x2="133.92" y2="250.09"/><line class="cls-2" x1="133.85" y1="250.09" x2="116.23" y2="267.71"/><line class="cls-2" x1="159.81" y1="123.62" x2="177.44" y2="106"/><line class="cls-2" x1="177.51" y1="106" x2="195.13" y2="123.62"/><line class="cls-2" x1="177.51" y1="141.31" x2="195.13" y2="123.69"/><line class="cls-2" x1="195.2" y1="123.69" x2="212.83" y2="141.31"/><line class="cls-2" x1="159.81" y1="159.01" x2="177.44" y2="141.39"/><line class="cls-2" x1="177.51" y1="141.39" x2="195.13" y2="159.01"/><line class="cls-2" x1="11.83" y1="204.96" x2="29.45" y2="187.34"/><line class="cls-2" x1="29.52" y1="187.34" x2="47.14" y2="204.96"/><line class="cls-2" x1="218.57" y1="81.82" x2="236.19" y2="64.19"/><line class="cls-2" x1="236.26" y1="99.56" x2="253.88" y2="81.93"/><line class="cls-2" x1="253.96" y1="81.93" x2="271.58" y2="99.56"/><line class="cls-2" x1="236.26" y1="64.24" x2="253.88" y2="81.86"/><line class="cls-2" x1="218.57" y1="117.21" x2="236.19" y2="99.59"/><line class="cls-2" x1="236.26" y1="134.95" x2="253.88" y2="117.33"/><line class="cls-2" x1="253.96" y1="117.33" x2="271.58" y2="134.95"/><line class="cls-2" x1="236.26" y1="99.63" x2="253.88" y2="117.25"/><line class="cls-2" x1="158.5" y1="262.03" x2="176.13" y2="244.4"/><line class="cls-2" x1="176.19" y1="279.77" x2="193.82" y2="262.14"/><line class="cls-2" x1="193.89" y1="262.14" x2="211.51" y2="279.77"/><line class="cls-2" x1="176.19" y1="244.45" x2="193.82" y2="262.07"/><line class="cls-2" x1="158.5" y1="297.42" x2="176.13" y2="279.79"/><line class="cls-2" x1="176.19" y1="315.16" x2="193.82" y2="297.53"/><line class="cls-2" x1="193.89" y1="297.53" x2="211.51" y2="315.16"/><line class="cls-2" x1="176.19" y1="279.84" x2="193.82" y2="297.46"/><line class="cls-2" x1="200.43" y1="179.19" x2="218.06" y2="161.57"/><line class="cls-2" x1="218.13" y1="161.57" x2="235.75" y2="179.19"/><line class="cls-2" x1="88.69" y1="73.03" x2="106.31" y2="55.41"/><line class="cls-2" x1="106.38" y1="90.77" x2="124" y2="73.15"/><line class="cls-2" x1="124.07" y1="73.15" x2="141.7" y2="90.77"/><line class="cls-2" x1="106.38" y1="55.45" x2="124" y2="73.07"/><line class="cls-2" x1="88.69" y1="108.42" x2="106.31" y2="90.8"/><line class="cls-2" x1="106.38" y1="126.16" x2="124" y2="108.54"/><line class="cls-2" x1="124.07" y1="108.54" x2="141.7" y2="126.16"/><line class="cls-2" x1="106.38" y1="90.84" x2="124" y2="108.47"/><line class="cls-2" x1="253.39" y1="235.73" x2="271.01" y2="218.1"/><line class="cls-2" x1="235.68" y1="253.47" x2="253.31" y2="235.84"/><line class="cls-2" x1="253.38" y1="235.84" x2="271" y2="253.47"/><line class="cls-2" x1="271.08" y1="218.15" x2="288.7" y2="235.77"/><line class="cls-2" x1="29.53" y1="306.6" x2="47.16" y2="288.97"/><line class="cls-2" x1="47.23" y1="288.97" x2="64.85" y2="306.6"/><line class="cls-2" x1="244.69" y1="163.73" x2="262.31" y2="146.1"/><line class="cls-2" x1="262.38" y1="181.47" x2="280" y2="163.84"/><line class="cls-2" x1="262.38" y1="146.15" x2="280" y2="163.77"/><line class="cls-2" x1="9.53" y1="132.6" x2="27.16" y2="114.97"/><line class="cls-2" x1="27.23" y1="114.97" x2="44.85" y2="132.6"/><line class="cls-2" x1="218.53" y1="211.6" x2="236.16" y2="193.97"/><line class="cls-2" x1="236.23" y1="193.97" x2="253.85" y2="211.6"/><line class="cls-2" x1="-1.21" y1="218.15" x2="16.41" y2="235.77"/><line class="cls-2" x1="-9.91" y1="181.47" x2="7.71" y2="163.84"/><line class="cls-2" x1="-9.91" y1="146.15" x2="7.71" y2="163.77"/><line class="cls-2" x1="225.25" y1="10.13" x2="207.63" y2="-7.49"/><line class="cls-2" x1="207.56" y1="27.87" x2="189.94" y2="10.25"/><line class="cls-2" x1="189.87" y1="10.25" x2="172.24" y2="27.87"/><line class="cls-2" x1="207.56" y1="-7.45" x2="189.94" y2="10.18"/><line class="cls-2" x1="189.86" y1="45.52" x2="172.24" y2="27.9"/><line class="cls-2" x1="172.17" y1="63.26" x2="154.55" y2="45.64"/><line class="cls-2" x1="154.47" y1="45.64" x2="136.85" y2="63.26"/><line class="cls-2" x1="172.17" y1="27.94" x2="154.55" y2="45.57"/><line class="cls-2" x1="287.69" y1="21.74" x2="270.06" y2="4.12"/><line class="cls-2" x1="269.99" y1="4.12" x2="252.37" y2="21.74"/><line class="cls-2" x1="269.99" y1="39.44" x2="252.37" y2="21.81"/><line class="cls-2" x1="252.3" y1="21.81" x2="234.67" y2="39.44"/><line class="cls-2" x1="287.69" y1="57.13" x2="270.06" y2="39.51"/><line class="cls-2" x1="269.99" y1="39.51" x2="252.37" y2="57.13"/><line class="cls-2" x1="165.67" y1="96.02" x2="183.3" y2="78.4"/><line class="cls-2" x1="183.37" y1="78.4" x2="200.99" y2="96.02"/><line class="cls-2" x1="33.3" y1="6.39" x2="50.92" y2="-11.23"/><line class="cls-2" x1="50.99" y1="24.13" x2="68.61" y2="6.51"/><line class="cls-2" x1="68.68" y1="6.51" x2="86.31" y2="24.13"/><line class="cls-2" x1="50.99" y1="-11.19" x2="68.61" y2="6.44"/><line class="cls-2" x1="15.4" y1="21.74" x2="-2.22" y2="4.12"/><line class="cls-2" x1="15.4" y1="57.13" x2="-2.22" y2="39.51"/><line class="cls-2" x1="22.36" y1="51.45" x2="39.98" y2="33.83"/><line class="cls-2" x1="40.05" y1="69.19" x2="57.67" y2="51.57"/><line class="cls-2" x1="57.75" y1="51.57" x2="75.37" y2="69.19"/><line class="cls-2" x1="40.05" y1="33.87" x2="57.67" y2="51.49"/><line class="cls-2" x1="22.36" y1="86.84" x2="39.98" y2="69.22"/><line class="cls-2" x1="40.05" y1="104.58" x2="57.67" y2="86.96"/><line class="cls-2" x1="57.75" y1="86.96" x2="75.37" y2="104.58"/><line class="cls-2" x1="40.05" y1="69.26" x2="57.67" y2="86.89"/><line class="cls-2" x1="117.24" y1="25.15" x2="134.87" y2="7.53"/><line class="cls-2" x1="99.54" y1="42.89" x2="117.16" y2="25.27"/><line class="cls-2" x1="117.24" y1="25.27" x2="134.86" y2="42.89"/><line class="cls-2" x1="134.93" y1="7.57" x2="152.56" y2="25.19"/><line class="cls-2" x1="82.39" y1="1.02" x2="100.01" y2="-16.6"/><line class="cls-2" x1="100.08" y1="-16.6" x2="117.71" y2="1.02"/></pattern><pattern id="network3" data-name="network3" width="522" height="490" patternUnits="userSpaceOnUse" viewBox="0 0 522 490"><rect class="cls-1" width="522" height="490"/><line class="cls-2" x1="504.5" y1="400" x2="546.5" y2="428"/><circle class="cls-2" cx="297.75" cy="436" r="14.75"/><circle class="cls-2" cx="404" cy="501.5" r="13.5"/><circle class="cls-2" cx="379.5" cy="450" r="14.5"/><circle class="cls-2" cx="452" cy="424.75" r="10.75"/><circle class="cls-2" cx="371.5" cy="384" r="15.5"/><circle class="cls-2" cx="451.5" cy="472" r="7.5"/><line class="cls-2" x1="452.5" y1="435" x2="451.5" y2="464"/><line class="cls-2" x1="373.5" y1="399" x2="379.5" y2="435"/><circle class="cls-2" cx="497" cy="393.5" r="9.5"/><circle class="cls-2" cx="325.5" cy="395" r="11"/><circle class="cls-2" cx="488.5" cy="499" r="9"/><circle class="cls-2" cx="500" cy="446.5" r="11.5"/><circle class="cls-2" cx="428.5" cy="392" r="11"/><circle class="cls-2" cx="340" cy="465.5" r="11.5"/><circle class="cls-2" cx="294.5" cy="489" r="12"/><line class="cls-2" x1="350.5" y1="460" x2="365.5" y2="454"/><line class="cls-2" x1="336.5" y1="392" x2="356.5" y2="386"/><line class="cls-2" x1="319.5" y1="404" x2="304.5" y2="423"/><line class="cls-2" x1="297.5" y1="451" x2="297.5" y2="477"/><line class="cls-2" x1="415.5" y1="494" x2="444.5" y2="477"/><line class="cls-2" x1="457.5" y1="476" x2="482.5" y2="492"/><line class="cls-2" x1="511.5" y1="446" x2="544.5" y2="440"/><line class="cls-2" x1="439.5" y1="392" x2="487.5" y2="393"/><line class="cls-2" x1="439.5" y1="352" x2="428.5" y2="381"/><line class="cls-2" x1="387.5" y1="384" x2="417.5" y2="392"/><line class="cls-2" x1="393.5" y1="454" x2="444.5" y2="469"/><line class="cls-2" x1="243.5" y1="400" x2="285.5" y2="428"/><circle class="cls-2" cx="36.75" cy="436" r="14.75"/><circle class="cls-2" cx="143" cy="501.5" r="13.5"/><circle class="cls-2" cx="118.5" cy="450" r="14.5"/><circle class="cls-2" cx="191" cy="424.75" r="10.75"/><circle class="cls-2" cx="110.5" cy="384" r="15.5"/><circle class="cls-2" cx="190.5" cy="472" r="7.5"/><line class="cls-2" x1="191.5" y1="435" x2="190.5" y2="464"/><line class="cls-2" x1="112.5" y1="399" x2="118.5" y2="435"/><circle class="cls-2" cx="236" cy="393.5" r="9.5"/><circle class="cls-2" cx="64.5" cy="395" r="11"/><circle class="cls-2" cx="227.5" cy="499" r="9"/><circle class="cls-2" cx="239" cy="446.5" r="11.5"/><circle class="cls-2" cx="167.5" cy="392" r="11"/><circle class="cls-2" cx="79" cy="465.5" r="11.5"/><circle class="cls-2" cx="33.5" cy="489" r="12"/><line class="cls-2" x1="89.5" y1="460" x2="104.5" y2="454"/><line class="cls-2" x1="75.5" y1="392" x2="95.5" y2="386"/><line class="cls-2" x1="58.5" y1="404" x2="43.5" y2="423"/><line class="cls-2" x1="36.5" y1="451" x2="36.5" y2="477"/><line class="cls-2" x1="154.5" y1="494" x2="183.5" y2="477"/><line class="cls-2" x1="196.5" y1="476" x2="221.5" y2="492"/><line class="cls-2" x1="250.5" y1="446" x2="283.5" y2="440"/><line class="cls-2" x1="178.5" y1="392" x2="226.5" y2="393"/><line class="cls-2" x1="178.5" y1="352" x2="167.5" y2="381"/><line class="cls-2" x1="126.5" y1="384" x2="156.5" y2="392"/><line class="cls-2" x1="132.5" y1="454" x2="183.5" y2="469"/><line class="cls-2" x1="-17.5" y1="400" x2="24.5" y2="428"/><line class="cls-2" x1="-10.5" y1="446" x2="22.5" y2="440"/><circle class="cls-2" cx="428.25" cy="191" r="14.75"/><circle class="cls-2" cx="534.5" cy="256.5" r="13.5"/><circle class="cls-2" cx="510" cy="205" r="14.5"/><circle class="cls-2" cx="463" cy="264" r="9.5"/><circle class="cls-2" cx="502" cy="139" r="15.5"/><circle class="cls-2" cx="499.5" cy="322.5" r="11"/><circle class="cls-2" cx="403" cy="290" r="10.5"/><circle class="cls-2" cx="443" cy="342" r="10.5"/><line class="cls-2" x1="504" y1="154" x2="510" y2="190"/><line class="cls-2" x1="509" y1="328" x2="534" y2="345"/><line class="cls-2" x1="454" y1="342" x2="489" y2="326"/><circle class="cls-2" cx="456" cy="150" r="11"/><circle class="cls-2" cx="470.5" cy="220.5" r="11.5"/><circle class="cls-2" cx="425" cy="244" r="12"/><circle class="cls-2" cx="456" cy="301" r="11"/><line class="cls-2" x1="481" y1="215" x2="496" y2="209"/><line class="cls-2" x1="467" y1="147" x2="487" y2="141"/><line class="cls-2" x1="450" y1="159" x2="435" y2="178"/><line class="cls-2" x1="428" y1="206" x2="428" y2="232"/><line class="cls-2" x1="419" y1="254" x2="407" y2="280"/><line class="cls-2" x1="435" y1="251" x2="456" y2="258"/><line class="cls-2" x1="463" y1="273" x2="459" y2="290"/><line class="cls-2" x1="473" y1="264" x2="522" y2="260"/><line class="cls-2" x1="508" y1="316" x2="540" y2="308"/><line class="cls-2" x1="518" y1="139" x2="548" y2="147"/><line class="cls-2" x1="374" y1="155" x2="416" y2="183"/><circle class="cls-2" cx="167.25" cy="191" r="14.75"/><circle class="cls-2" cx="273.5" cy="256.5" r="13.5"/><circle class="cls-2" cx="249" cy="205" r="14.5"/><circle class="cls-2" cx="202" cy="264" r="9.5"/><circle class="cls-2" cx="321.5" cy="179.75" r="10.75"/><circle class="cls-2" cx="241" cy="139" r="15.5"/><circle class="cls-2" cx="321" cy="227" r="7.5"/><circle class="cls-2" cx="282.5" cy="353.5" r="13"/><circle class="cls-2" cx="238.5" cy="322.5" r="11"/><circle class="cls-2" cx="142" cy="290" r="10.5"/><circle class="cls-2" cx="182" cy="342" r="10.5"/><line class="cls-2" x1="322" y1="190" x2="321" y2="219"/><line class="cls-2" x1="243" y1="154" x2="249" y2="190"/><line class="cls-2" x1="248" y1="328" x2="273" y2="345"/><line class="cls-2" x1="193" y1="342" x2="228" y2="326"/><circle class="cls-2" cx="338" cy="312" r="14"/><circle class="cls-2" cx="366.5" cy="148.5" r="9.5"/><circle class="cls-2" cx="195" cy="150" r="11"/><circle class="cls-2" cx="358" cy="254" r="9"/><circle class="cls-2" cx="369.5" cy="201.5" r="11.5"/><circle class="cls-2" cx="298" cy="147" r="11"/><circle class="cls-2" cx="209.5" cy="220.5" r="11.5"/><circle class="cls-2" cx="164" cy="244" r="12"/><circle class="cls-2" cx="195" cy="301" r="11"/><circle class="cls-2" cx="289" cy="306" r="10"/><circle class="cls-2" cx="366.5" cy="345.5" r="9.5"/><line class="cls-2" x1="220" y1="215" x2="235" y2="209"/><line class="cls-2" x1="206" y1="147" x2="226" y2="141"/><line class="cls-2" x1="189" y1="159" x2="174" y2="178"/><line class="cls-2" x1="167" y1="206" x2="167" y2="232"/><line class="cls-2" x1="158" y1="254" x2="146" y2="280"/><line class="cls-2" x1="174" y1="251" x2="195" y2="258"/><line class="cls-2" x1="202" y1="273" x2="198" y2="290"/><line class="cls-2" x1="212" y1="264" x2="261" y2="260"/><line class="cls-2" x1="276" y1="270" x2="287" y2="296"/><line class="cls-2" x1="247" y1="316" x2="279" y2="308"/><line class="cls-2" x1="285" y1="249" x2="314" y2="232"/><line class="cls-2" x1="327" y1="231" x2="352" y2="247"/><line class="cls-2" x1="381" y1="201" x2="414" y2="195"/><line class="cls-2" x1="309" y1="147" x2="357" y2="148"/><line class="cls-2" x1="309" y1="107" x2="298" y2="136"/><line class="cls-2" x1="257" y1="139" x2="287" y2="147"/><line class="cls-2" x1="299" y1="306" x2="325" y2="306"/><line class="cls-2" x1="347" y1="322" x2="361" y2="338"/><line class="cls-2" x1="392" y1="292" x2="351" y2="308"/><line class="cls-2" x1="289" y1="365" x2="317" y2="387"/><line class="cls-2" x1="263" y1="209" x2="314" y2="224"/><line class="cls-2" x1="113" y1="155" x2="155" y2="183"/><circle class="cls-2" cx="12.5" cy="256.5" r="13.5"/><circle class="cls-2" cx="-12" cy="205" r="14.5"/><circle class="cls-2" cx="60.5" cy="179.75" r="10.75"/><circle class="cls-2" cx="60" cy="227" r="7.5"/><circle class="cls-2" cx="21.5" cy="353.5" r="13"/><line class="cls-2" x1="61" y1="190" x2="60" y2="219"/><line class="cls-2" x1="-13" y1="328" x2="12" y2="345"/><circle class="cls-2" cx="77" cy="312" r="14"/><circle class="cls-2" cx="105.5" cy="148.5" r="9.5"/><circle class="cls-2" cx="97" cy="254" r="9"/><circle class="cls-2" cx="108.5" cy="201.5" r="11.5"/><circle class="cls-2" cx="37" cy="147" r="11"/><circle class="cls-2" cx="28" cy="306" r="10"/><circle class="cls-2" cx="105.5" cy="345.5" r="9.5"/><line class="cls-2" x1="-49" y1="264" y2="260"/><line class="cls-2" x1="15" y1="270" x2="26" y2="296"/><line class="cls-2" x1="-14" y1="316" x2="18" y2="308"/><line class="cls-2" x1="24" y1="249" x2="53" y2="232"/><line class="cls-2" x1="66" y1="231" x2="91" y2="247"/><line class="cls-2" x1="120" y1="201" x2="153" y2="195"/><line class="cls-2" x1="48" y1="147" x2="96" y2="148"/><line class="cls-2" x1="48" y1="107" x2="37" y2="136"/><line class="cls-2" x1="-4" y1="139" x2="26" y2="147"/><line class="cls-2" x1="38" y1="306" x2="64" y2="306"/><line class="cls-2" x1="86" y1="322" x2="100" y2="338"/><line class="cls-2" x1="131" y1="292" x2="90" y2="308"/><line class="cls-2" x1="28" y1="365" x2="56" y2="387"/><line class="cls-2" x1="2" y1="209" x2="53" y2="224"/><circle class="cls-2" cx="404" cy="11.5" r="13.5"/><circle class="cls-2" cx="332.5" cy="19" r="9.5"/><circle class="cls-2" cx="413" cy="108.5" r="13"/><circle class="cls-2" cx="369" cy="77.5" r="11"/><circle class="cls-2" cx="272.5" cy="45" r="10.5"/><circle class="cls-2" cx="312.5" cy="97" r="10.5"/><line class="cls-2" x1="378.5" y1="83" x2="403.5" y2="100"/><line class="cls-2" x1="323.5" y1="97" x2="358.5" y2="81"/><circle class="cls-2" cx="468.5" cy="67" r="14"/><circle class="cls-2" cx="488.5" cy="9" r="9"/><circle class="cls-2" cx="294.5" cy="-1" r="12"/><circle class="cls-2" cx="325.5" cy="56" r="11"/><circle class="cls-2" cx="419.5" cy="61" r="10"/><circle class="cls-2" cx="497" cy="100.5" r="9.5"/><line class="cls-2" x1="288.5" y1="9" x2="276.5" y2="35"/><line class="cls-2" x1="304.5" y1="6" x2="325.5" y2="13"/><line class="cls-2" x1="332.5" y1="28" x2="328.5" y2="45"/><line class="cls-2" x1="342.5" y1="19" x2="391.5" y2="15"/><line class="cls-2" x1="406.5" y1="25" x2="417.5" y2="51"/><line class="cls-2" x1="377.5" y1="71" x2="409.5" y2="63"/><line class="cls-2" x1="415.5" y1="4" x2="444.5" y2="-13"/><line class="cls-2" x1="457.5" y1="-14" x2="482.5" y2="2"/><line class="cls-2" x1="429.5" y1="61" x2="455.5" y2="61"/><line class="cls-2" x1="477.5" y1="77" x2="491.5" y2="93"/><line class="cls-2" x1="522.5" y1="47" x2="481.5" y2="63"/><line class="cls-2" x1="419.5" y1="120" x2="447.5" y2="142"/><circle class="cls-2" cx="143" cy="11.5" r="13.5"/><circle class="cls-2" cx="71.5" cy="19" r="9.5"/><circle class="cls-2" cx="152" cy="108.5" r="13"/><circle class="cls-2" cx="108" cy="77.5" r="11"/><circle class="cls-2" cx="11.5" cy="45" r="10.5"/><circle class="cls-2" cx="51.5" cy="97" r="10.5"/><line class="cls-2" x1="117.5" y1="83" x2="142.5" y2="100"/><line class="cls-2" x1="62.5" y1="97" x2="97.5" y2="81"/><circle class="cls-2" cx="207.5" cy="67" r="14"/><circle class="cls-2" cx="227.5" cy="9" r="9"/><circle class="cls-2" cx="33.5" cy="-1" r="12"/><circle class="cls-2" cx="64.5" cy="56" r="11"/><circle class="cls-2" cx="158.5" cy="61" r="10"/><circle class="cls-2" cx="236" cy="100.5" r="9.5"/><line class="cls-2" x1="27.5" y1="9" x2="15.5" y2="35"/><line class="cls-2" x1="43.5" y1="6" x2="64.5" y2="13"/><line class="cls-2" x1="71.5" y1="28" x2="67.5" y2="45"/><line class="cls-2" x1="81.5" y1="19" x2="130.5" y2="15"/><line class="cls-2" x1="145.5" y1="25" x2="156.5" y2="51"/><line class="cls-2" x1="116.5" y1="71" x2="148.5" y2="63"/><line class="cls-2" x1="154.5" y1="4" x2="183.5" y2="-13"/><line class="cls-2" x1="196.5" y1="-14" x2="221.5" y2="2"/><line class="cls-2" x1="168.5" y1="61" x2="194.5" y2="61"/><line class="cls-2" x1="216.5" y1="77" x2="230.5" y2="93"/><line class="cls-2" x1="261.5" y1="47" x2="220.5" y2="63"/><line class="cls-2" x1="158.5" y1="120" x2="186.5" y2="142"/><line class="cls-2" x1="0.5" y1="47" x2="-40.5" y2="63"/></pattern></defs><g id="Layer_1" data-name="Layer 1"><path class="cls-3" d="M1674.76,421.8l-4.92-.87a74.64,74.64,0,0,1,13.22-.06c-51.8-7.12-120.2-4.17-164.31,1.55-15.89-.4-30,1.32-31.57,3.87s10.17,4.92,26.18,5.34c3.52.34,7.64.6,10.19,1.06,22.81,4.25,50.7,7.31,81.47,9.74L1587,440c8.89.73,17.66,1.49,27.58,1.66-1-.48-2.36-1-3.4-1.45,30.57,3.8,72.57,3.24,93.82-1.33s13.94-11.37-16.65-15.22Z" transform="translate(-20.21 -108.95)"/><path class="cls-3" d="M1617.79,406.11c18.33,1.93,35.92,4,53.54,6.11l3.47.92-1.12-3.95-.35.25c-16.57,3.06-43.82,3.95-68.92,4.59l-9,.45c-4.29.45-7.16,1.18-8.06,2-2.12,1.87,5.68,3.74,17.36,4.21l13.47.52c32.78,2.72,84.4,3.6,102.81-2.79,4.14-1.48.56-3.48-.3-5.29,1.29-2.58-11-5-27.41-5.47s-30.55,1.33-31.72,3.93l-8.39-.67,6.6-.84c-4.67,2.2-19.63,2.49-30.77,3.53l-16.69.41,9.33,6.21,8.7-.68c-.66-.27-1.93-.67-1.82-.69,16.54-1.42,32.11-2.85,50.21-3.65l22.8-1.88c6.19-1.06,5.61-2.79-1.12-3.95l-10.07-1.47,4.55.85c-23.26-1.73-47.81-2.91-70.82-4.7-3.63-.34-8.07-.15-10,.43C1612.47,405.07,1614,405.8,1617.79,406.11Z" transform="translate(-20.21 -108.95)"/><path class="cls-3" d="M1700,406.51a80.06,80.06,0,0,0,12.77,1l2.3-.45-7.35-1.15C1702.42,405.12,1699.69,405.65,1700,406.51Z" transform="translate(-20.21 -108.95)"/><path class="cls-3" d="M1715.06,407.1l3.07.49-2.05-.61-.6,0Z" transform="translate(-20.21 -108.95)"/><path class="cls-3" d="M697.94,412.27c-36-.56-72.12-.86-108.25-1.13s-72.29-.35-108.45-.41c-2.42,0-4.46.28-4.57.67s1.77.66,4,.64c72.34.12,144.32.58,216.34,1.6,2.43,0,4.43-.27,4.75-.63C701.89,412.62,700.19,412.31,697.94,412.27Z" transform="translate(-20.21 -108.95)"/><path class="cls-3" d="M157.77,379.53c1.72-.31,1.65-.7-.14-.95a22.91,22.91,0,0,0-5.95.1c-1.44.26-1.38.74.15.95A22.87,22.87,0,0,0,157.77,379.53Z" transform="translate(-20.21 -108.95)"/><path class="cls-3" d="M172.87,349.75c10.11-.68,19.71-1.44,28.26-2.57a25.16,25.16,0,0,1,4.74,0c-.59-.6,1.33-1.17,5-1.48,35.9-3,73.18-5.17,111-7.09s76.18-3.4,114.24-5.13A7.75,7.75,0,0,1,439.3,332c5.25-1.58,15.83-2.45,26.81-2.25l8.28.31c33.46.66,66.83,1,100.1,1.83,6.8-.74,14.69-1.24,23.28-1.43,28.75-2,57.61-4,87.1-5.48-1.86-.41-3-.91-3-1.46.56-1.32,7.39-2.31,15.36-2.29l12.06-.13-34.61-.9c-1.66,0-3.2-.09-4.6-.21-12.65,0-25.43.1-38.43.29C518.22,322,411.57,327.88,305.8,334.76a23.52,23.52,0,0,1-6-.07c-1-.3-.85-.74,1.08-.93,33.32-3.7,64.39-7.79,96.56-11.61,16.09-1.91,32.45-3.76,49.5-5.44s34.8-3.12,53.65-4.34c89.77-5.87,178.44-10.54,270.5-14.15,24.07,0,47.69-.26,71.11-.62l35-.64,34.92-.72,70.3-1.73,72.2-1.65c132.66-2.79,258-2.46,387.76-1.43,48.64-.53,93.12,5.44,99.33,13.25,3.6,4.73-7.45,9-27.47,11.77l11.86.24,18.77,1.17c17.77,1.16,32.91,3.27,42.44,6l13.12,3.41c17.41,6.36,45.67,11.95,59.88,18.61l-3.24,2.37,3.37.76c11.15,2,18.64,4.38,21.2,6.89l-1.12,2.92c-2.39,3.33-8,6.41-17,9.24.3,1.26-.8,2.46-3.14,3.57,7.6,3.13,11.17,6.34,5.07,9.73,4.59.94,3.81,2.21-1.69,2.86a62.91,62.91,0,0,1-6.49.36h0c2.51.81,3.27,1,6.66,1.95l7.21.55,22.69,1.36a119.39,119.39,0,0,1,14.63,2.69c10,5.41,10,5.41,8.37,7.65-.59.21-1.25.42-1.95.61,8,.88,8.58.94,10.74,1.21a38.15,38.15,0,0,1,3.81.93c.32,1.23.32,1.23,1.69,1.69a1.07,1.07,0,0,1,.33.92c-4.51,1.29-4.51,1.29-4.64,1.67a23.78,23.78,0,0,1-2.53.62l-8.24.52-11.25-3.33-2.47,1.06-2.6-1.49,1.47,1.35-5.69-.9,6.49,1.27c-13.47-.69-13.47-.69-18.87-.72-5.61-.24-10.41,0-11,0a1.26,1.26,0,0,1,.48.72l-28.44-1.51c-1.3-.31-2.32-.62-3.28-.92a27.45,27.45,0,0,1-6.82.37l-7.37-.35-1.58.16a.18.18,0,0,0,0,.1l-6.23.54-1.29.14-.07,0-27,2.35c-4.36-.22-8.42-.48-12.25-.78,1.24.21,2.42.41,3.56.64,2.29.46.18,1.59,1.43,1.72,30.75,2.85,64.27,4.36,97.3,6.19,5.93-.06,11.48.72,12.34,1.68s-3.49,1.78-9.57,1.81c-16.77,1.32-34.49,2.18-52.7,2.64s-36.94.56-55.71.29-37.59-.89-56-1.82-36.46-2.07-53.65-3.51q-27.16-1.21-54.6-2.22l2.61.61-14.17-1-1.53-.05,10.71,2.23,7.43.69c42.37,1.36,80.78,5,121.68,7.67,22,1.43,40.85,3.71,61.63,5.48,5.35.19,9.05,1,8.41,1.86s-5.64,1.36-10.87,1.19c-69.41.54-148.58-1.69-204.07-9.5a289.74,289.74,0,0,1-35-2.26l-.56,0,7.78,1.85c-9.47-.52-14.5-2-23.14-2.73,1,.82,2.19,1.63,3.17,2.45-46.73-2-97.27-1.54-140.53-5.36-1.74-.07-3.37-.16-5-.26-18.64,1.6-37.49,3.16-59.61,3.27l22.28.89c-16,1-32,1.59-49.14,1.4-46.49-.45-98.51-4.26-123.08-10.7-90.12.65-180.38,1.26-270.29,3.14-4.64.13-8.81-.37-9.64-1.09-.48-.7,2.58-1.41,7.23-1.53q24.18-1,48.53-1.83t48.81-1.4q48.92-1.25,98.14-2-41.09-1-82.5-1.68c-27.64-.43-55.45-.81-83.53-.82l-21.56.39c-7.14.13-14.21,0-21.26-.31-35.87.07-70.83.17-106,.48s-70.45.9-107,2.08l-45.64,1.54-44.15,1.7c-29.26,1.17-58.48,2.38-89.58,3.89-43.68,2.08-85.42,4.13-127,5.93-20.81.88-41.58,1.64-62.55,2.3S79.63,422.11,58,422.45c-11.47.4-22.13-.76-23.51-2.58s6.89-3.63,18.4-4c180-8.53,356.82-17.44,545.19-17.56h60.19c-.26-.25-.5-.49-.5-.74,0-1,1.88-1.94,5.06-2.73q-33.87-.19-68.18-.82c-31.74,1.2-63.5,2.49-95.79,3.4q-24.21.66-48.89,1t-50.06.21c-23.25-.16-45.39-.71-67.11-1.36s-43-1.44-64.5-2.19L104.57,400.8a15.12,15.12,0,0,1-5.27-.33c-.8-.34.38-.72,2.6-.88,37.8-2.9,76.54-5.06,115.66-7.16-6.19-1.07-9.88-2.5-9.4-4.14s5.23-3.27,12.52-4.43l-26.62.23c-5.48,0-9.8-.58-9.66-1.41s4.46-1.63,9.68-1.68c36.21-.42,72.34-.67,108.47-1,43.37-1.47,86.59-2.6,130.05-3.71-6-1.06-10.48-2.38-12.61-3.91a0,0,0,0,1,0,0l-20.13.32c-122.73,5.87-248.35,10.07-375,11.23-2.48.06-4.53-.22-4.58-.62s1.86-.74,4.09-.75q57.38-.45,114.4-1.83h-.16c-1.53-.22-1.83-.65-.15-1a25.24,25.24,0,0,1,6-.11c1.77.25,1.61.68.18.94,35.41-.78,70.7-1.87,105.8-3.06s70-2.61,104.73-4.14c-64.5,1.08-129,2.07-193.42,2.23l-21.14,1.73a16.54,16.54,0,0,1-5.27-.43c-.55-.31.87-.73,2.86-.84l5.91-.45c-12.2,0-21.63-1.47-21.46-3.48.64-2.08,11.1-3.8,23.77-3.9q50.88-1.25,101.54-2l11-.49,11-1.09-157.27-.72c-4.47.08-8.3-.44-8.41-1.15s3.5-1.38,8-1.46c91.88-4.2,184.94-7.35,278.41-9.5,30.65-3.38,61.41-6.82,92.73-10.09-3.94,0-7.94,0-11.94,0-101.65.85-187.8,10.53-286.16,13.69-2.46.12-4.51-.16-4.84-.51s1.4-.74,3.89-.78c48-1.89,91.8-5.37,139.42-8,39.46-2.21,77-4.13,113.64-6.82-37.5.78-74.22,2.25-110.85,3.93S253.3,346.67,216.17,348a40.33,40.33,0,0,1-8.59-.27,3.62,3.62,0,0,1-1.82.53c-9.27,1.11-19.39,2-29.73,2.69a16.68,16.68,0,0,1-5.53-.3C169.47,350.37,170.67,350,172.87,349.75Zm1304.42,40.57,1.86.45-6.55-.81-9.12-3ZM1592.2,381h-.07l5.25,1.7Zm-733,20.73c39.4,0,78.4.78,117.32,2.62l-28.49.46C918.5,403.94,888.92,402.86,859.19,401.74Zm694.93.49a246.33,246.33,0,0,1-26-5.65c-6.83.26-13.95.3-21.17.15-19.39-.42-38.28-1-56.88-1.76,2.41,1.06-2,.88-4.33,1l-7,.17c19.83.95,39.73,2,60,3.06C1516.93,400.14,1536.76,400.86,1554.12,402.23Zm138.62-2,1.7.4-3.74,1.47S1691.6,401.31,1692.74,400.23Zm5.89-2.51-2.83-.26A2.56,2.56,0,0,1,1698.63,397.72Zm-26.05-2.33a28.55,28.55,0,0,0,3.68.88ZM1654.72,350l-10.28,7.52,11.2-7.2Z" transform="translate(-20.21 -108.95)"/><path class="cls-4" d="M341.13,162.64l4.65.63a65.08,65.08,0,0,1-12.35.68c12.18,1.16,25.3,1.67,38.77,1.66,3.37,0,6.75,0,10.16-.11l10.22-.21c6.83-.14,13.68-.38,20.46-.73A661.37,661.37,0,0,0,487,156.79c14.83.18,28-1.68,29.42-4.25s-9.58-4.8-24.56-5c-3.3-.33-7.16-.45-9.55-.84-21.46-3.63-47.68-5.93-76.62-7.51l17,2c-8.36-.49-16.61-1-25.91-.9,1,.45,2.25.9,3.24,1.36-3.6-.37-7.37-.66-11.24-.89s-7.86-.24-11.89-.26c-8.07,0-16.32.24-24.29.75-15.93,1-30.72,3-40.56,5.8-19.76,5.54-12.42,12,16.37,14.43Z" transform="translate(-20.21 -108.95)"/><path class="cls-4" d="M395,175.81l-50.18-3.76-3.29-.77,1.23,3.9.32-.27c7.65-1.9,17.83-3.4,29-4.63,5.59-.61,11.45-1.19,17.36-1.66s11.88-.76,17.73-1.08l8.34-.7c4-.57,6.65-1.38,7.46-2.23,1.92-1.92-5.41-3.58-16.34-3.72l-12.6-.15-6-.3-6.3-.13c-4.3-.07-8.77-.08-13.33,0-9.13.08-18.58.38-27.61.94-18,1.13-34.34,3.31-42.76,6.92-3.78,1.67-.33,3.5.57,5.27-1.05,2.64,10.56,4.52,25.86,4.2s28.42-2.72,29.39-5.38l7.86.29-6.12,1.14c4.26-2.41,18.21-3.39,28.57-4.94,5.19-.42,10.38-.63,15.56-1l-8.93-5.95c-2.7.29-5.4.68-8.1,1,.62.24,1.82.58,1.72.61-15.41,2.18-29.88,4.31-46.75,6l-21.19,2.92c-5.71,1.35-5.09,3.05,1.25,3.9l9.47,1-4.29-.64c21.77.66,44.7.7,66.21,1.46a29,29,0,0,0,9.3-.71C400,176.71,398.48,176,395,175.81Z" transform="translate(-20.21 -108.95)"/><path class="cls-4" d="M318.34,179.06a70.14,70.14,0,0,0-12-.46l-2.12.56,6.92.82C316.15,180.56,318.67,179.9,318.34,179.06Z" transform="translate(-20.21 -108.95)"/><path class="cls-4" d="M304.26,179.16l-2.88-.34,1.94.51.56-.07Z" transform="translate(-20.21 -108.95)"/><path class="cls-4" d="M1249,179.87c33.27,1.57,66.53,2.53,99.86,3.57s66.63,1.54,100,2.12c2.23,0,4.11-.23,4.22-.61s-1.62-.69-3.69-.69c-33.33-.62-66.54-1-99.79-2.17s-66.41-2-99.67-3.57c-2.23-.07-4.09.16-4.4.51C1245.34,179.42,1246.9,179.78,1249,179.87Z" transform="translate(-20.21 -108.95)"/><path class="cls-4" d="M1747.29,214.61c-1.58.36-1.5.75.16.95a19.69,19.69,0,0,0,5.49-.25c1.32-.3,1.25-.77-.17-.94A19.58,19.58,0,0,0,1747.29,214.61Z" transform="translate(-20.21 -108.95)"/><path class="cls-4" d="M1734.25,244.75c-9.36.94-18.25,1.94-26.17,3.29a22.12,22.12,0,0,1-4.4.15c.57.59-1.21,1.21-4.59,1.61l-12.54,1.43c-4.2.46-8.42,1-12.66,1.3q-12.72,1.11-25.63,2.11c-17.21,1.33-34.65,2.54-52.22,3.68s-35.27,1.88-53,2.69l-53.18,2.31a6.85,6.85,0,0,1-3,1.44c-4.9,1.61-14.73,2.33-24.93,2l-7.69-.42-46.54-1.53-23.22-.77c-7.73-.25-15.45-.67-23.16-1-6.32.59-13.65.93-21.63.93q-20,1.1-40.21,2.05l-20.28.88-20.43.61c1.72.46,2.74,1,2.72,1.54-.56,1.3-6.92,2.12-14.31,1.89l-11.18-.19,32.06,1.8c1.54.06,3,.18,4.26.33q8.79.27,17.71.37l18,.19c105.32,1,204.69-3.85,303-11.44a20,20,0,0,1,5.58,0c1,.3.8.73-1,.95-7.74,1-15.35,2-22.89,3.07s-15,2.14-22.4,3l-44.53,5.7c-15,1.86-30.22,3.65-46.11,5.28-15.88,1.43-32.41,2.66-50,3.63l-31.32,1.69-15.64.82c-5.21.28-10.41.44-15.61.67q-31.23,1.25-62.53,2.33c-10.44.34-20.93.76-31.39,1l-31.49.71q-31.59.66-63.63,1.13c-22.29-.65-44.18-1.09-65.89-1.39l-32.45-.36-32.31-.26-131.72-.42c-122.43-.42-237.59-2.71-356.44-2.68-22.25.54-43.56-.55-60.06-2.74-4.12-.53-7.95-1.18-11.4-1.81s-6.55-1.32-9.22-2.06c-5.33-1.5-9-3.23-10.44-5.13-3.4-4.6,6.6-9.27,24.93-12.45-3.66,0-7.26,0-10.89,0L464.94,262c-16.32-.67-30.27-2.38-39.1-4.86l-12.15-3.06c-4.05-1.47-8.73-2.88-13.67-4.25s-10.16-2.75-15.27-4c-10.24-2.53-20.13-5.11-26.81-8.11l2.88-2.52-3.14-.6c-10.35-1.44-17.37-3.52-19.85-5.92l.9-3c2-3.43,7.1-6.76,15.31-10-.33-1.23.63-2.49,2.75-3.71-7.17-2.78-10.63-5.81-5.13-9.48-4.29-.73-3.63-2,1.44-2.94a57.36,57.36,0,0,1,6-.65h-.05c-2.37-.69-3.07-.89-6.26-1.64l-6.72-.23L325,196.79a105,105,0,0,1-13.73-2c-9.54-4.94-9.54-4.94-8.19-7.25.54-.24,1.15-.48,1.79-.71-7.51-.5-8-.54-10.07-.71a34.1,34.1,0,0,1-3.59-.76c-.38-1.2-.38-1.2-1.68-1.6a1.14,1.14,0,0,1-.35-.91c4.12-1.49,4.12-1.49,4.22-1.88a23.1,23.1,0,0,1,2.32-.74l7.65-.89L314,182.14l2.24-1.17,2.5,1.37-1.43-1.28,5.34.63-6.11-1c12.58.07,12.58.07,17.61-.14,5.24,0,9.7-.48,10.23-.53a1.26,1.26,0,0,1-.48-.69c13.45.07,13.45.07,26.56.2,1.23.25,2.19.51,3.1.77a23.73,23.73,0,0,1,6.34-.68h6.87l1.47-.23a.33.33,0,0,0,0-.11l5.79-.72,1.19-.17.07,0,25-3.09c4.06.1,7.85.25,11.43.45-1.16-.18-2.26-.35-3.34-.55-2.14-.39-.21-1.58-1.38-1.67q-10.78-.76-22-1.28l-11.28-.47-5.68-.2-5.73-.09c-15.29-.23-30.85-.29-46.31-.44-5.54.32-10.76-.2-11.61-1.12s3.17-1.94,8.85-2.25c15.6-2.09,32.12-3.76,49.13-5.05l6.4-.46,6.44-.31q6.45-.3,13-.53c8.68-.3,17.44-.51,26.21-.64,17.55-.24,35.15-.14,52.38.28,17.21.63,34.05,1.64,50.1,2.86q25.35.9,50.93,1.6l-2.43-.59c4.41.3,8.81.68,13.2,1L600,166l-10-2.24c-2.3-.26-4.6-.44-6.94-.64-19.76-.43-38.61-1.46-57.3-2.65s-37.21-2.65-56.37-3.29c-20.58-.82-38.29-2.58-57.78-3.79-5,0-8.5-.74-7.93-1.62s5.23-1.51,10.13-1.49c16.24-.62,33-1.08,50-1.31,8.45-.11,16.93-.19,25.36-.15s16.8.32,25.08.58c16.55.52,32.7,1.31,48,2.42,7.63.56,15,1.2,22.14,1.93s13.92,1.67,20.39,2.64a252.85,252.85,0,0,1,32.61,2.31l.53,0-7.25-1.86c8.83.54,13.51,2.06,21.56,2.77-.91-.82-2-1.63-2.94-2.46,10.89.5,22,.87,33.17,1.2s22.37.79,33.48,1.23c22.22.9,44,2,64.12,4.21,1.62.09,3.13.2,4.64.32,17.35-1.27,34.89-2.41,55.44-2.1l-20.67-1.33c14.93-.64,29.73-1,45.68-.41,21.62.65,44.41,2.38,64.67,4.75S967.7,170.45,979,174c41.74.89,83.52,1.91,125.22,2.69s83.37,1.51,124.89,1.66c4.29,0,8.12.61,8.87,1.34.42.72-2.42,1.35-6.72,1.35q-22.35.39-44.87.58c-15,.08-30.08.06-45.17,0q-45.27-.14-90.86-.75c25.36,1.44,50.74,2.79,76.28,4l38.46,1.74,19.33.77,19.41.61,19.94.17c6.59,0,13.11.41,19.62.86l24.72.63c8.19.22,16.35.43,24.48.55l48.65.76,24.37.27c8.15.07,16.32.15,24.53.06,16.41-.11,33-.32,49.86-.66,14.41-.32,28.37-.57,42.09-1l40.65-1.56c26.93-1.13,53.85-2,82.41-4l59-3.68c4.83-.32,9.67-.53,14.47-.93l14.38-1.13,28.62-2.16,28.57-2,14.32-.94c4.78-.3,9.57-.57,14.35-1,19.14-1.56,38.47-3,58.19-4.24,10.48-.89,20.29-.18,21.66,1.58s-6.1,3.92-16.63,4.81l-61.57,6.08c-2.56.24-5.12.53-7.69.74l-7.7.59L1749.75,183l-30.83,2.37-30.85,2.35-7.72.58c-2.57.21-5.14.39-7.72.52l-15.48.86-62.1,3.3-15.58.78c-5.19.22-10.41.36-15.62.53l-31.34,1-31.48.85c-10.52.24-21.06.58-31.64.6q-31.76.25-63.87.23l-16.09,0-8.06,0-8.09-.12-32.49-.62-55.57-1.26a1.26,1.26,0,0,1,.45.75c0,1-1.79,1.91-4.74,2.62q31.27.92,62.94,2.24l88.47-1.81c14.91-.24,29.92-.37,45.12-.35,15.19-.13,30.55-.21,46.15,0,10.72.12,21.18.33,31.47.6l15.3.46,7.58.26,7.52.15c20,.43,39.62,1,59.45,1.57l18.81-.87c6.27-.31,12.54-.54,18.79-1l37.56-2.51,37.64-2.49c6.28-.42,12.58-.76,18.87-1.25l18.89-1.58a13.08,13.08,0,0,1,4.86.1c.74.31-.32.74-2.35,1l-13,1.65-6.54.81c-2.19.28-4.37.55-6.57.75l-26.47,2.53q-26.6,2.47-53.62,4.74c5.72.91,9.16,2.25,8.77,3.9s-4.75,3.4-11.45,4.74l24.55-.9c5.06-.15,9.07.34,9,1.18s-4.08,1.74-8.89,1.91l-25,1-12.52.47-12.52.24-50.07.95-30,1.35c-5,.26-10,.37-15,.51l-15,.41-60.14,1.51c5.57,1.08,9.68,2.42,11.64,4a0,0,0,0,1,0,0l18.61-.26,42.69-2,10.7-.45,10.72-.6,21.46-1.19,43.08-2.21,21.6-1c7.21-.35,14.42-.89,21.63-1.3q21.66-1.33,43.38-2.52l21.75-1.16c7.25-.4,14.52-.66,21.77-1.24q43.55-3,87.34-5.47c2.29-.16,4.2,0,4.27.42s-1.68.83-3.74.92q-26.44,1.47-52.8,3.16l-26.34,1.74-13.15.92c-4.38.32-8.77.46-13.15.7l.15,0c1.42.17,1.71.59.17.94a21.48,21.48,0,0,1-5.5.25c-1.64-.2-1.51-.63-.2-.93q-24.51,1.26-48.91,2.7l-24.39,1.47c-4.06.23-8.11.57-12.17.72l-12.17.56q-24.32,1.14-48.51,2.44l-24.16,1.33-12.05.67-12,.52,11.18-.15c3.73,0,7.45-.2,11.18-.29l22.36-.62,44.71-1.14,22.35-.5,22.33-.84q22.33-.82,44.65-1.47l19.48-2.26a14.22,14.22,0,0,1,4.89.3c.51.3-.78.75-2.62.91l-5.44.59a86.36,86.36,0,0,1,14.24.61c3.59.51,5.76,1.23,5.72,2.25-.25,1-2.78,2.18-6.71,3a94.54,94.54,0,0,1-15.13,1.61l-47,2.42-23.47,1.12c-3.91.17-7.82.39-11.73.52l-11.73.31-10.15.59-10.18,1.2c12.18-.1,24.35-.09,36.51-.26l36.45-.84,36.39-.78,18.17-.38,4.54-.09,4.53-.19,9.07-.37c4.13-.28,7.7.07,7.83.78s-3.18,1.52-7.34,1.8c-5.31.5-10.62,1.08-15.94,1.49l-16,1.17-32,2.29-32.14,2.21-16.1,1.08-16.13.76-64.7,2.85-16.21.67c-5.41.21-10.82.29-16.23.43l-32.49.74L1489.4,250l-10.76,1.22-10.8,1.09-21.73,2.18c3.66.07,7.37.13,11.08.16,23.57.28,46.28-.62,68.48-1.58,11.1-.5,22.07-1.08,33-1.7l16.29-1c5.42-.3,10.82-.81,16.22-1.21,43.19-3.5,85.93-6.66,131.49-9.83,2.29-.19,4.2,0,4.51.39s-1.27.77-3.59.87c-11.12.77-22,1.63-32.75,2.57-5.37.44-10.71,1-16,1.38l-16,1.22c-21.23,1.65-42.43,3.41-64.53,5l-13.65,1c-4.53.31-9,.51-13.49.77l-26.58,1.52c-17.54,1-34.77,2.14-51.8,3.42,17.42-.33,34.65-.84,51.78-1.46l25.63-1,12.78-.55,12.76-.76,51-3.08c17-1,34.13-1.78,51.35-3.07a35.42,35.42,0,0,1,8,.05,3.21,3.21,0,0,1,1.68-.57c8.57-1.35,18-2.45,27.52-3.44a14.25,14.25,0,0,1,5.15.17C1737.39,244.05,1736.29,244.45,1734.25,244.75ZM526.08,188.4l-1.73-.43,6.1.73,8.5,2.9ZM419.6,200.2h.06l-4.92-1.56ZM1099.65,186c-36.45-1.14-72.56-3-108.52-5.92l26.39.35C1044.81,182.14,1072.19,184.05,1099.65,186ZM454.4,178a215.6,215.6,0,0,1,24.34,4.93q4.77-.33,9.71-.51c3.29-.06,6.63-.08,10,0,18,.2,35.62.57,52.92,1.1-2.25-1,1.9-.91,4-1l6.51-.25c-18.46-.71-37-1.5-55.82-2.36C489.08,178.9,470.59,178.87,454.4,178Zm-129,7.05c-.53-.11-1-.21-1.6-.32l3.4-1.64S326.42,183.86,325.41,185Zm-5.35,2.78,2.65.13A2.25,2.25,0,0,1,320.06,187.78Zm24.33,1.13a25.1,25.1,0,0,0-3.46-.71Zm18.54,44.53,9.17-8-10,7.7Z" transform="translate(-20.21 -108.95)"/><path class="cls-5" d="M531.25,276a169.71,169.71,0,0,0-96.71-147c-1-.47-2-.92-2.94-1.36l0,0c-1.33-.6-2.66-1.18-4-1.75h0q-2.92-1.23-5.91-2.36c-2-.76-4-1.47-6-2.14l0,0c-1.38-.47-2.77-.91-4.16-1.34h0a84.94,84.94,0,0,0-49.82,162c1.4.53,2.78,1.09,4.13,1.69a85.17,85.17,0,0,1-58.48,159.62A170,170,0,0,0,531.25,276Z" transform="translate(-20.21 -108.95)"/><path class="cls-6" d="M365.71,283.8c-1.41-.45-2.81-.94-4.21-1.47s-2.78-1.1-4.14-1.69a85.18,85.18,0,0,1,50.94-161.5A169.87,169.87,0,0,0,295.43,439q2.9,1.21,5.86,2.34t5.94,2.13A85.17,85.17,0,0,0,365.71,283.8Z" transform="translate(-20.21 -108.95)"/><path class="cls-7" d="M365.62,283.74c-1.41-.45-2.81-.95-4.21-1.48s-2.79-1.09-4.14-1.69a85.17,85.17,0,0,1,50.94-161.49A169.92,169.92,0,0,0,244.09,405.32a168.28,168.28,0,0,0,51.25,33.56q2.9,1.23,5.86,2.35t5.94,2.12a85.16,85.16,0,0,0,58.48-159.61Z" transform="translate(-20.21 -108.95)"/><path class="cls-8" d="M531.19,275.83a170.43,170.43,0,0,0-52.52-116.55,167.79,167.79,0,0,0-44.19-30.4c-1-.47-2-.92-2.93-1.37a.05.05,0,0,1,0,0c-1.33-.59-2.66-1.18-4-1.74h0c-1.94-.83-3.92-1.61-5.9-2.37s-4-1.47-6-2.14h0c-1.38-.47-2.76-.92-4.15-1.35h0a84.94,84.94,0,0,0-49.83,162.05c1.4.53,2.78,1.09,4.14,1.69a85.17,85.17,0,0,1-58.49,159.61,170,170,0,0,0,224-167.38Z" transform="translate(-20.21 -108.95)"/><text class="cls-9" transform="translate(571.75 175.49)">69. STU<tspan class="cls-10" x="549.17" y="0">T</tspan><tspan x="636.66" y="0" xml:space="preserve">S      </tspan><tspan x="0" y="144.67" xml:space="preserve">      </tspan><tspan class="cls-11" x="226.65" y="144.67"> </tspan><tspan class="cls-12" x="257.12" y="144.67">T</tspan><tspan class="cls-13" x="326.44" y="144.67">A</tspan><tspan class="cls-14" x="426.94" y="144.67">C</tspan><tspan class="cls-15" x="520.66" y="144.67">OS</tspan><tspan x="719.52" y="144.67"> </tspan><tspan class="cls-16" x="757.3" y="144.67">2021</tspan></text></g></svg>